# xmcd
#
# Track frame offsets: 
#        150
#        1655
#        23720
#        51198
#        82354
#        113036
#        136975
#        168576
#        199335
#        227403
#        261512
#
# Disc length: 3904 seconds
#
# Revision: 0
# Processed by: cddbd v1.5.2PL0 Copyright (c) Steve Scherf et al.
# Submitted via: ExactAudioCopy v0.99pb5
#
DISCID=900f3e0b
DTITLE=Various Artist - Ta Ao Tim
DYEAR=2009
DGENRE=Vocal
TTITLE0=01 - Loi Dan
TTITLE1=02. Mot Mua Dong_Hong Van - Em Toi_Thanh Long Bass
TTITLE2=03. Chieu_To Kieu Ngan - Chieu_Cao Minh
TTITLE3=04. Hon Gian_Hong Van - Ngoc Lan_Hong Nhung
TTITLE4=05. Ao Lua_Doan Yen Linh - Ta Ao Tim_Hong Van
TTITLE5=06. Mat Nguoi Son Tay_Hong Van - Ta Tu_Thanh Long Bass
TTITLE6=07. Thoi Truoc_Kim Le - Trang Sang Vuon Che_Hong Van
TTITLE7=08. Tong Biet Hanh_To Kieu Ngan - Cac Anh Di_Nhat Sinh
TTITLE8=09. Nguyet Cam_Hong Van - Da Khuc_Thu Minh
TTITLE9=10. Tinh Trong Mua_Ngo Dinh Long - Em Den Tham Anh 1 Chieu Mua
TTITLE9=_Thanh Long Bass
TTITLE10=11. Rat Hue_Hong Van - Goi Giac Mo Xua_Cao Minh
EXTD=
EXTT0=
EXTT1=
EXTT2=
EXTT3=
EXTT4=
EXTT5=
EXTT6=
EXTT7=
EXTT8=
EXTT9=
EXTT10=
PLAYORDER=
